<?xml version="1.0" encoding="UTF-8" standalone="no"?>
<!-- Created with Inkscape (http://www.inkscape.org/) -->

<svg
   xmlns:osb="http://www.openswatchbook.org/uri/2009/osb"
   xmlns:dc="http://purl.org/dc/elements/1.1/"
   xmlns:cc="http://creativecommons.org/ns#"
   xmlns:rdf="http://www.w3.org/1999/02/22-rdf-syntax-ns#"
   xmlns:svg="http://www.w3.org/2000/svg"
   xmlns="http://www.w3.org/2000/svg"
   xmlns:xlink="http://www.w3.org/1999/xlink"
   xmlns:sodipodi="http://sodipodi.sourceforge.net/DTD/sodipodi-0.dtd"
   xmlns:inkscape="http://www.inkscape.org/namespaces/inkscape"
   width="221.79652mm"
   height="63.45121mm"
   viewBox="0 0 221.79653 63.45121"
   version="1.1"
   id="svg8"
   inkscape:version="0.92.4 (5da689c313, 2019-01-14)"
   sodipodi:docname="logo.svg">
  <defs
     id="defs2">
    <linearGradient
       inkscape:collect="always"
       id="linearGradient861">
      <stop
         style="stop-color:#33333d;stop-opacity:1;"
         offset="0"
         id="stop857" />
      <stop
         style="stop-color:#33333d;stop-opacity:0;"
         offset="1"
         id="stop859" />
    </linearGradient>
    <linearGradient
       id="linearGradient1017"
       osb:paint="solid">
      <stop
         style="stop-color:#e3e3ed;stop-opacity:1;"
         offset="0"
         id="stop1015" />
    </linearGradient>
    <linearGradient
       inkscape:collect="always"
       xlink:href="#linearGradient861"
       id="linearGradient863"
       x1="261.27866"
       y1="591.12531"
       x2="652.14349"
       y2="591.12531"
       gradientUnits="userSpaceOnUse" />
  </defs>
  <sodipodi:namedview
     id="base"
     pagecolor="#ffffff"
     bordercolor="#666666"
     borderopacity="1.0"
     inkscape:pageopacity="0.0"
     inkscape:pageshadow="2"
     inkscape:zoom="0.7"
     inkscape:cx="245.35483"
     inkscape:cy="63.112052"
     inkscape:document-units="mm"
     inkscape:current-layer="layer1"
     showgrid="false"
     inkscape:window-width="1920"
     inkscape:window-height="1027"
     inkscape:window-x="1912"
     inkscape:window-y="535"
     inkscape:window-maximized="1"
     fit-margin-left="2.5"
     fit-margin-top="2.5"
     fit-margin-right="2.5"
     fit-margin-bottom="2.5" />
  <metadata
     id="metadata5">
    <rdf:RDF>
      <cc:Work
         rdf:about="">
        <dc:format>image/svg+xml</dc:format>
        <dc:type
           rdf:resource="http://purl.org/dc/dcmitype/StillImage" />
        <dc:title></dc:title>
      </cc:Work>
    </rdf:RDF>
  </metadata>
  <g
     inkscape:label="レイヤー 1"
     inkscape:groupmode="layer"
     id="layer1"
     style="display:inline"
     transform="translate(-24.8507,-140.76261)">
    <path
       style="opacity:1;fill:#e3e3ed;fill-opacity:1;stroke:none;stroke-width:1.93889689;stroke-miterlimit:4;stroke-dasharray:none;stroke-opacity:0"
       clip-path="none"
       d="m 46.711663,143.26261 -18.716276,19.11603 11.261469,5.08771 z"
       id="path849"
       inkscape:connector-curvature="0" />
    <path
       style="opacity:1;fill:#73737d;fill-opacity:1;stroke:none;stroke-width:2.81776905;stroke-miterlimit:4;stroke-dasharray:none;stroke-opacity:0"
       d="m 48.161865,145.01366 -6.915026,22.45269 h 11.246219 l -0.58692,-0.73387 0.659012,-1.00147 1.155817,0.31703 0.05592,1.19787 -0.585073,0.22044 h 1.885538 l -2.008929,-6.52313 -1.532463,0.43395 0.750981,-2.97018 -1.812982,-5.8863 -2.179923,-0.70245 1.535699,-1.38921 z"
       id="path894"
       inkscape:connector-curvature="0" />
    <path
       style="opacity:1;fill:#33333d;fill-opacity:1;stroke:none;stroke-width:3.09949112;stroke-miterlimit:4;stroke-dasharray:none;stroke-opacity:0"
       d="m 40.805495,169.49746 7.35637,29.07287 2.081485,-8.22566 -1.130859,-1.41369 1.146573,-1.74274 0.732032,0.20058 1.054608,-4.16667 -0.836476,0.6775 -0.409921,-2.58799 1.576828,0.6054 1.514439,-5.9852 -1.499188,-2.61295 2.527452,-1.4502 0.599861,-2.37125 z m 11.157485,7.80234 0.536085,1.79311 -1.821301,-0.4321 z"
       id="path894-4"
       inkscape:connector-curvature="0" />
    <path
       style="fill:#b4b4be;fill-opacity:1;stroke:none;stroke-width:0.23661652px;stroke-linecap:butt;stroke-linejoin:miter;stroke-opacity:1"
       clip-path="none"
       d="m 27.3507,164.34227 11.157027,34.48456 8.405433,2.88699 -8.152181,-32.21636 z"
       id="path939"
       inkscape:connector-curvature="0" />
    <path
       style="display:inline;opacity:1;fill:#e3e3ed;fill-opacity:1;stroke:none;stroke-width:1.93889689;stroke-miterlimit:4;stroke-dasharray:none;stroke-opacity:0"
       clip-path="none"
       d="m 49.63702,143.34209 3.381953,10.98095 3.339899,-4.11583 z m 3.437873,11.16119 1.863355,6.05035 0.678886,-2.07547 3.29923,0.0527 0.971422,3.29552 -2.698446,1.98444 -1.645224,-1.28984 1.516748,4.92412 7.213108,-3.25856 -1.452049,-0.0268 0.09104,-4.91857 2.33289,0.0429 -3.295531,-3.36624 z m 14.709507,7.37347 -0.01341,0.72972 0.504658,-0.22783 z"
       id="path849-1"
       inkscape:connector-curvature="0" />
    <path
       style="display:inline;fill:#b4b4be;fill-opacity:1;stroke:none;stroke-width:0.23661652px;stroke-linecap:butt;stroke-linejoin:miter;stroke-opacity:1"
       clip-path="none"
       d="m 68.92358,164.33488 -6.700131,3.02703 4.571968,3.55063 z m -8.167893,3.69021 -3.242386,1.46498 -2.144338,8.47475 1.695138,-0.55965 1.506579,2.1032 6.062376,-1.91234 1.128089,-3.48639 -6.189001,2.52191 z m -2.442419,13.8282 -1.135019,1.65215 -2.955397,-1.01209 -1.855035,7.33049 1.284754,-1.22652 1.358694,5.58452 -3.487782,-1.0218 -2.16236,8.54638 8.405433,-2.88699 0.377569,-1.16737 -1.165059,0.0878 -0.820764,-10.86403 5.609475,-0.42378 0.718169,-2.22014 z"
       id="path939-6"
       inkscape:connector-curvature="0" />
  </g>
  <g
     inkscape:groupmode="layer"
     id="layer2"
     inkscape:label="レイヤー 2"
     style="display:inline"
     transform="translate(-24.8507,-140.76261)">
    <flowRoot
       xml:space="preserve"
       id="flowRoot7625"
       style="font-style:normal;font-weight:normal;font-size:40px;line-height:1.25;font-family:sans-serif;letter-spacing:0px;word-spacing:0px;fill:#33333d;fill-opacity:1;stroke:none"><flowRegion
         id="flowRegion7627"
         style="fill:#33333d;fill-opacity:1"><rect
           id="rect7629"
           width="317.1879"
           height="173.74623"
           x="277.28687"
           y="545.72253"
           style="fill:#33333d;fill-opacity:1" /></flowRegion><flowPara
         id="flowPara7631" /></flowRoot>    <g
       aria-label="Cairngorm"
       transform="matrix(0.37659131,0,0,0.37659131,-24.152412,-43.881459)"
       style="font-style:normal;font-variant:normal;font-weight:normal;font-stretch:normal;font-size:40px;line-height:1.25;font-family:'Nagomi Gokuboso Gothic';-inkscape-font-specification:'Nagomi Gokuboso Gothic';letter-spacing:0px;word-spacing:0px;fill:#33333d;fill-opacity:1;stroke:none"
       id="flowRoot836">
      <path
         d="m 291.7067,626.99901 c 6.27602,0 12.34284,-1.25521 18.30506,-3.87022 V 625.43 c -5.85762,2.40581 -11.92444,3.66101 -18.30506,3.66101 -17.88666,0 -29.8111,-14.53945 -29.8111,-39.22513 0,-24.68568 11.29684,-39.22512 28.86969,-39.22512 6.58983,0 12.86585,1.2552 18.72347,3.66101 v 2.30121 c -5.96222,-2.61501 -12.13364,-3.87022 -18.72347,-3.87022 -16.73605,0 -26.77768,14.01645 -26.77768,37.13312 0,22.90748 10.66923,37.13313 27.71909,37.13313 z"
         style="font-style:normal;font-variant:normal;font-weight:normal;font-stretch:normal;font-size:104.6003418px;font-family:'Nagomi Gokuboso Gothic';-inkscape-font-specification:'Nagomi Gokuboso Gothic';letter-spacing:-1.86456335px;fill:#33333d;fill-opacity:1"
         id="path845"
         inkscape:connector-curvature="0" />
      <path
         d="m 359.61383,628.04501 v -12.13364 h -0.2092 c -3.76561,8.05423 -11.71524,13.17964 -21.75687,13.17964 -9.72783,0 -15.69005,-5.96222 -15.69005,-15.69005 0,-3.76561 0.8368,-6.90362 3.55641,-10.35543 2.71961,-3.34721 6.58982,-5.75302 14.01645,-7.32203 3.66101,-0.7322 7.94962,-1.1506 12.76124,-1.1506 h 7.32202 v -5.23002 c 0,-10.77383 -4.07941,-14.64405 -15.69005,-14.64405 -7.00822,0 -13.38884,1.25521 -19.35106,3.87022 v -2.30121 c 5.75302,-2.40581 12.23824,-3.66101 19.35106,-3.66101 12.86584,0 17.78206,4.70701 17.78206,16.73605 v 38.70213 z m 0,-21.96607 v -9.41403 h -7.32202 c -18.82806,0 -28.24209,5.54381 -28.24209,16.73605 0,8.47263 5.12541,13.59805 13.59804,13.59805 12.65664,0 21.96607,-8.78643 21.96607,-20.92007 z"
         style="font-style:normal;font-variant:normal;font-weight:normal;font-stretch:normal;font-size:104.6003418px;font-family:'Nagomi Gokuboso Gothic';-inkscape-font-specification:'Nagomi Gokuboso Gothic';letter-spacing:-1.86456335px;fill:#33333d;fill-opacity:1"
         id="path847"
         inkscape:connector-curvature="0" />
      <path
         d="m 383.55613,560.05479 h -2.092 v -10.46004 h 2.092 z m 0,67.99022 h -2.092 v -54.39218 h 2.092 z"
         style="font-style:normal;font-variant:normal;font-weight:normal;font-stretch:normal;font-size:104.6003418px;font-family:'Nagomi Gokuboso Gothic';-inkscape-font-specification:'Nagomi Gokuboso Gothic';letter-spacing:-1.86456335px;fill:#33333d;fill-opacity:1"
         id="path850"
         inkscape:connector-curvature="0" />
      <path
         d="m 405.8804,573.65283 v 15.37625 h 0.2092 c 4.07941,-9.51863 13.17964,-15.37625 24.89488,-15.37625 h 2.09201 v 2.09201 h -2.09201 c -14.74865,0 -25.10408,9.93703 -25.10408,24.05808 v 28.24209 h -2.09201 v -54.39218 z"
         style="font-style:normal;font-variant:normal;font-weight:normal;font-stretch:normal;font-size:104.6003418px;font-family:'Nagomi Gokuboso Gothic';-inkscape-font-specification:'Nagomi Gokuboso Gothic';letter-spacing:-1.86456335px;fill:#33333d;fill-opacity:1"
         id="path852"
         inkscape:connector-curvature="0" />
      <path
         d="m 448.1441,573.65283 v 10.98304 h 0.2092 c 3.87022,-6.69443 12.23824,-12.02904 19.66487,-12.02904 12.55204,0 17.78206,6.27602 17.78206,23.01207 v 32.42611 h -2.09201 V 595.6189 c 0,-16.42225 -4.81162,-20.92007 -15.69005,-20.92007 -9.20483,0 -19.87407,9.20483 -19.87407,16.73606 v 36.61012 h -2.092 v -54.39218 z"
         style="font-style:normal;font-variant:normal;font-weight:normal;font-stretch:normal;font-size:104.6003418px;font-family:'Nagomi Gokuboso Gothic';-inkscape-font-specification:'Nagomi Gokuboso Gothic';letter-spacing:-1.86456335px;fill:#33333d;fill-opacity:1"
         id="path854"
         inkscape:connector-curvature="0" />
      <path
         d="m 518.67442,621.76899 c -7.53123,0 -12.97045,-0.8368 -16.31766,-2.40581 -3.45181,-1.569 -5.12541,-4.07941 -5.12541,-7.53122 0,-2.82421 1.2552,-5.33462 3.87021,-7.53123 -3.66101,-3.24261 -5.43922,-7.53122 -5.43922,-12.86584 0,-11.19224 8.15883,-18.82806 19.87407,-18.82806 9.51863,0 16.10845,3.34721 19.66486,10.04163 h 0.2092 v -8.99563 h 2.09201 v 17.78206 c 0,10.98303 -8.05423,17.78206 -20.92007,17.78206 -5.54382,0 -10.14623,-1.25521 -13.80725,-3.66101 -2.3012,1.7782 -3.45181,3.87021 -3.45181,6.27602 0,2.1966 0.73221,3.66101 3.24261,5.33461 2.51041,1.67361 8.05423,2.51041 16.10846,2.51041 13.91184,0 20.92006,5.02082 20.92006,15.16705 0,10.35543 -9.41403,17.25906 -24.05807,17.25906 -7.11283,0 -13.70265,-1.46441 -19.87407,-4.49782 v -2.30121 c 5.75302,3.13802 12.34284,4.70702 19.87407,4.70702 13.38884,0 21.96607,-5.96222 21.96607,-15.16705 0,-3.34721 -0.6276,-5.75302 -3.03341,-8.57723 -2.40581,-2.82421 -7.84503,-4.49781 -15.79465,-4.49781 z m -15.89926,-42.46774 c -3.34721,3.13801 -5.02081,7.21742 -5.02081,12.13364 0,9.93703 7.00822,15.69005 18.82806,15.69005 11.61064,0 18.82806,-5.96222 18.82806,-15.69005 0,-10.14623 -7.84502,-16.73606 -19.87406,-16.73606 -5.23002,0 -9.51864,1.56901 -12.76125,4.60242 z"
         style="font-style:normal;font-variant:normal;font-weight:normal;font-stretch:normal;font-size:104.6003418px;font-family:'Nagomi Gokuboso Gothic';-inkscape-font-specification:'Nagomi Gokuboso Gothic';letter-spacing:-1.86456335px;fill:#33333d;fill-opacity:1"
         id="path856"
         inkscape:connector-curvature="0" />
      <path
         d="m 587.63409,621.66439 c -4.07942,4.91621 -9.93704,7.42662 -17.36366,7.42662 -14.95785,0 -23.53508,-10.25083 -23.53508,-28.24209 0,-17.99126 8.57723,-28.24209 23.53508,-28.24209 14.95785,0 23.53508,10.25083 23.53508,28.24209 0,8.99563 -2.09201,15.89925 -6.17142,20.81547 z m -33.26291,-1.46441 c 3.66101,4.49782 8.99563,6.79903 15.89925,6.79903 13.80724,0 21.44307,-9.30944 21.44307,-26.15009 0,-16.84066 -7.63583,-26.15009 -21.44307,-26.15009 -13.80725,0 -21.44307,9.30943 -21.44307,26.15009 0,8.47263 1.88281,14.85325 5.54382,19.35106 z"
         style="font-style:normal;font-variant:normal;font-weight:normal;font-stretch:normal;font-size:104.6003418px;font-family:'Nagomi Gokuboso Gothic';-inkscape-font-specification:'Nagomi Gokuboso Gothic';letter-spacing:-1.86456335px;fill:#33333d;fill-opacity:1"
         id="path858"
         inkscape:connector-curvature="0" />
      <path
         d="m 607.41852,573.65283 v 15.37625 h 0.2092 c 4.07941,-9.51863 13.17964,-15.37625 24.89488,-15.37625 h 2.09201 v 2.09201 h -2.09201 c -14.74865,0 -25.10408,9.93703 -25.10408,24.05808 v 28.24209 h -2.09201 v -54.39218 z"
         style="font-style:normal;font-variant:normal;font-weight:normal;font-stretch:normal;font-size:104.6003418px;font-family:'Nagomi Gokuboso Gothic';-inkscape-font-specification:'Nagomi Gokuboso Gothic';letter-spacing:-1.86456335px;fill:#33333d;fill-opacity:1"
         id="path860"
         inkscape:connector-curvature="0" />
      <path
         d="m 649.68225,573.65283 v 9.62323 h 0.2092 c 3.24261,-6.27602 9.30943,-10.66923 15.48085,-10.66923 8.26343,0 13.17964,4.07941 14.85325,12.34284 h 0.2092 c 2.92881,-7.00823 9.62323,-12.34284 16.31765,-12.34284 10.77384,0 15.69005,6.69442 15.69005,20.92007 v 34.51811 h -2.092 V 593.5269 c 0,-13.07505 -4.07942,-18.82807 -13.59805,-18.82807 -7.84502,0 -15.69005,8.36803 -15.69005,16.73606 v 36.61012 h -2.09201 V 593.5269 c 0,-13.38885 -4.28861,-18.82807 -13.59804,-18.82807 -7.84503,0 -15.69005,8.36803 -15.69005,16.73606 v 36.61012 h -2.09201 v -54.39218 z"
         style="font-style:normal;font-variant:normal;font-weight:normal;font-stretch:normal;font-size:104.6003418px;font-family:'Nagomi Gokuboso Gothic';-inkscape-font-specification:'Nagomi Gokuboso Gothic';letter-spacing:-1.86456335px;fill:#33333d;fill-opacity:1"
         id="path862"
         inkscape:connector-curvature="0" />
    </g>
    <flowRoot
       xml:space="preserve"
       id="flowRoot833"
       style="font-style:normal;font-variant:normal;font-weight:normal;font-stretch:normal;font-size:40px;line-height:1.25;font-family:'Nagomi Gokuboso Gothic';-inkscape-font-specification:'Nagomi Gokuboso Gothic';letter-spacing:0px;word-spacing:0px;fill:#000000;fill-opacity:1;stroke:none"
       transform="scale(0.26458333)"><flowRegion
         id="flowRegion835"><rect
           id="rect837"
           width="16.162441"
           height="53.538086"
           x="856.60938"
           y="760.88507" /></flowRegion><flowPara
         id="flowPara839"></flowPara></flowRoot>  </g>
</svg>
